:version 1.10
:name ASF
:units
  mass 1
  length 1
  angle deg
:documentation
  ASF file generated by Kaydara
:root
  axis xyz
  order  tx ty tz rx ry rz
  position 0 0 0
  orientation 0 0 0
:bonedata
  begin
    id 1
    name abdomenDummy
    direction 1 -1.27917e-005 -1.26829e-007
    length 1.79048
    axis 0 0 0 xyz
  end
  begin
    id 2
    name abdomen
    direction 0.987238 0.159249 -9.68575e-008
    length 8.61378
    axis 2.73208e-005 5.54953e-006 9.16328 xyz
    dof rx ry rz
  end
  begin
    id 3
    name chest
    direction 0 0 0
    length 0
    axis 2.65071e-005 8.63688e-006 2.59796 xyz
    dof rx ry rz
  end
  begin
    id 4
    name neckDummyDummy
    direction 0.998972 0.0453274 -1.50742e-007
    length 9.56202
    axis 2.65071e-005 8.63688e-006 2.59796 xyz
  end
  begin
    id 5
    name neckDummy
    direction 0.99977 0.0214525 -1.61748e-007
    length 1.93574
    axis 2.62932e-005 9.26758e-006 1.22924 xyz
    dof rx ry rz
  end
  begin
    id 6
    name neck
    direction 0.99928 -0.0379406 -1.88707e-007
    length 3.70367
    axis 2.56966e-005 1.08122e-005 -2.17436 xyz
    dof rx ry rz
  end
  begin
    id 7
    name head
    direction 0.992648 -0.121037 -2.25408e-007
    length 6.35158
    axis 2.47068e-005 1.29149e-005 -6.95196 xyz
    dof rx ry rz
  end
  begin
    id 8
    name figureHair
    direction -0.86681 -0.498639 -7.83376e-008
    length 8.29884
    axis -2.7515e-005 4.48842e-006 -150.09 xyz
    dof rx ry rz
  end
  begin
    id 9
    name lCollarDummy
    direction 0.994611 0.0451299 -0.0933417
    length 9.60395
    axis 2.65071e-005 8.63688e-006 2.59796 xyz
  end
  begin
    id 10
    name lCollar
    direction 0.0384146 0.00127577 -0.999261
    length 6.95318
    axis 90.4899 87.7973 1.90202 xyz
    dof rx ry rz
  end
  begin
    id 11
    name lShldr
    direction -0.030648 0.0920515 -0.995282
    length 9.61158
    axis -161.793 84.4324 108.415 xyz
    dof rx ry rz
  end
  begin
    id 12
    name lForeArm
    direction 0.000163956 -0.0977586 -0.99521
    length 8.6068
    axis 0.134773 84.3899 -89.8525 xyz
    dof rx ry rz
  end
  begin
    id 13
    name lHand
    direction -0.0190533 -0.1444 -0.989336
    length 7.61479
    axis -7.3729 81.6249 -97.517 xyz
    dof rx ry rz
  end
  begin
    id 14
    name rCollarDummy
    direction 0.994871 0.0442627 0.0909555
    length 9.60761
    axis 2.65071e-005 8.63688e-006 2.59796 xyz
  end
  begin
    id 15
    name rCollar
    direction 0.0334251 -4.74072e-007 0.999441
    length 6.97058
    axis -178.152 -88.0845 -0.000674207 xyz
    dof rx ry rz
  end
  begin
    id 16
    name rShldr
    direction -0.026922 0.0719509 0.997045
    length 9.60913
    axis 71.2822 -85.594 110.514 xyz
    dof rx ry rz
  end
  begin
    id 17
    name rForeArm
    direction 0.00134679 -0.118986 0.992895
    length 8.57176
    axis -88.7923 -83.1659 -89.3516 xyz
    dof rx ry rz
  end
  begin
    id 18
    name rHand
    direction -0.0185183 -0.0768601 0.99687
    length 7.69687
    axis -74.5596 -85.4655 -103.546 xyz
    dof rx ry rz
  end
  begin
    id 19
    name lThighDummy
    direction -0.236086 -0.0385456 -0.970967
    length 4.99155
    axis 0 0 0 xyz
  end
  begin
    id 20
    name lThigh
    direction -0.993968 0.0148998 -0.108653
    length 13.572
    axis -91.4001 6.23768 179.141 xyz
    dof rx ry rz
  end
  begin
    id 21
    name lShin
    direction -0.992341 0.0904576 -0.0841193
    length 18.5862
    axis -91.4558 4.82538 174.792 xyz
    dof rx ry rz
  end
  begin
    id 22
    name lFoot
    direction 0.0209381 -0.999771 -0.00453005
    length 8.44474
    axis 4.86759 0.259522 -88.8001 xyz
    dof rx ry rz
  end
  begin
    id 23
    name rThighDummy
    direction -0.236086 -0.0385456 0.970967
    length 4.99155
    axis 0 0 0 xyz
  end
  begin
    id 24
    name rThigh
    direction -0.993968 0.0148995 0.108653
    length 13.5721
    axis -89.7059 -6.2377 179.141 xyz
    dof rx ry rz
  end
  begin
    id 25
    name rShin
    direction -0.9925 0.0899962 0.0827255
    length 18.6716
    axis -89.2745 -4.74775 174.819 xyz
    dof rx ry rz
  end
  begin
    id 26
    name rFoot
    direction 0.0301721 -0.999545 9.70865e-005
    length 8.45013
    axis -2.50066e-005 -0.00555246 -88.271 xyz
    dof rx ry rz
  end
:hierarchy
  begin
    root abdomenDummy lThighDummy rThighDummy
    abdomenDummy abdomen
    abdomen chest
    chest neckDummyDummy lCollarDummy rCollarDummy
    neckDummyDummy neckDummy
    neckDummy neck
    neck head
    head figureHair
    lCollarDummy lCollar
    lCollar lShldr
    lShldr lForeArm
    lForeArm lHand
    rCollarDummy rCollar
    rCollar rShldr
    rShldr rForeArm
    rForeArm rHand
    lThighDummy lThigh
    lThigh lShin
    lShin lFoot
    rThighDummy rThigh
    rThigh rShin
    rShin rFoot
  end

:SAMPLES-PER-SECOND 25
:FULLY-SPECIFIED
:DEGREES
525
root  3.92651 37.0692 -1.71215 175.909 -0.206345 92.218
abdomen  -0.201724 -4.20584 7.44349
chest  0.997371 3.70125 -7.50238
neckDummy  9.09964e-021 0 8.72668e-016
neck  6.37572 5.66828 9.18995
head  4.18426 -5.57058 -11.2749
figureHair  0 1.51661e-021 -9.5315e-016
lCollar  -5.15695e-016 -6.42944e-016 -7.59357e-014
lShldr  2.24685 -22.8406 -6.43125
lForeArm  -158.193 -40.4193 176.82
lHand  0.254698 0.195082 5.2986
rCollar  1.7976e-016 -5.12864e-014 1.62755e-015
rShldr  -3.5656 5.45529 33.5987
rForeArm  -3.53638 -1.01106 133.449
rHand  0.181302 0.0809304 -10.3537
lThigh  -7.15689 -3.37661 0.0479782
lShin  -11.9921 1.01255 -5.01629
lFoot  4.75339 -0.421321 -2.58434
rThigh  8.84467 -6.07607 -0.798932
rShin  2.35671 2.9386 3.35587
rFoot  -3.3203 -0.0881232 -4.35628
526
root  3.9427 37.0697 -1.73109 175.924 -0.238571 92.2008
abdomen  -0.217096 -4.18095 7.46804
chest  0.98084 3.72065 -7.49137
neckDummy  9.09964e-021 0 8.72668e-016
neck  6.44878 5.65275 9.10953
head  4.27374 -5.61892 -11.4682
figureHair  0 1.51661e-021 -9.5315e-016
lCollar  -5.15695e-016 -6.42944e-016 -7.59357e-014
lShldr  2.38416 -23.0526 -6.42969
lForeArm  -157.53 -40.5622 176.82
lHand  0.254698 0.195082 5.2986
rCollar  1.7976e-016 -5.12864e-014 1.62755e-015
rShldr  -3.28809 5.35466 33.8683
rForeArm  -4.18579 -1.00659 133.137
rHand  0.10121 0.68547 -10.4316
lThigh  -7.23607 -3.47242 0.133233
lShin  -11.9125 1.17376 -5.01412
lFoot  4.70271 -0.418612 -2.54081
rThigh  8.80498 -6.04956 -0.737155
rShin  2.41445 2.88841 3.37235
rFoot  -3.30373 -0.0930826 -4.38816
527
root  3.95554 37.0702 -1.74358 175.939 -0.248215 92.1633
abdomen  -0.239961 -4.18418 7.49217
chest  0.960233 3.74492 -7.55304
neckDummy  9.09964e-021 0 8.72668e-016
neck  6.48858 5.74245 9.07234
head  4.2904 -5.76367 -11.5441
figureHair  0 1.51661e-021 -9.5315e-016
lCollar  -5.15695e-016 -6.42944e-016 -7.59357e-014
lShldr  2.39343 -23.2353 -6.41072
lForeArm  -157.399 -40.5954 176.82
lHand  0.254698 0.195082 5.2986
rCollar  1.7976e-016 -5.12864e-014 1.62755e-015
rShldr  -3.14791 5.23052 34.0458
rForeArm  -4.30049 -1.00453 132.977
rHand  0.063664 0.963554 -10.4342
lThigh  -7.26033 -3.5085 0.164858
lShin  -11.875 1.26532 -5.00273
lFoot  4.69615 -0.418685 -2.52518
rThigh  8.81785 -5.99808 -0.727041
rShin  2.42263 2.84649 3.409
rFoot  -3.28252 -0.0966853 -4.40468
528
root  3.96715 37.0707 -1.75174 175.918 -0.243484 92.1411
abdomen  -0.24404 -4.17722 7.54904
chest  0.951484 3.73512 -7.69967
neckDummy  9.09964e-021 0 8.72668e-016
neck  6.49184 5.78153 9.0974
head  4.2777 -5.76787 -11.5289
figureHair  0 1.51661e-021 -9.5315e-016
lCollar  -5.15695e-016 -6.42944e-016 -7.59357e-014
lShldr  2.24985 -23.3744 -6.34708
lForeArm  -157.559 -40.5391 176.822
lHand  0.254698 0.195082 5.2986
rCollar  1.7976e-016 -5.12864e-014 1.62755e-015
rShldr  -3.16333 5.02338 34.0984
rForeArm  -3.89565 -1.00692 133.112
rHand  0.0792008 0.874547 -10.7514
lThigh  -7.24934 -3.5033 0.16576
lShin  -11.9021 1.26768 -4.98891
lFoot  4.69373 -0.418078 -2.53467
rThigh  8.85501 -5.99685 -0.742975
rShin  2.36763 2.85951 3.44517
rFoot  -3.31169 -0.0943305 -4.40515
529
root  3.97818 37.0712 -1.75711 175.889 -0.227066 92.1386
abdomen  -0.243031 -4.15409 7.61092
chest  0.945524 3.72231 -7.83864
neckDummy  9.09964e-021 0 8.72668e-016
neck  6.46858 5.71012 9.19199
head  4.27365 -5.66751 -11.5744
figureHair  0 1.51661e-021 -9.5315e-016
lCollar  -5.15695e-016 -6.42944e-016 -7.59357e-014
lShldr  2.06228 -23.4278 -6.26287
lForeArm  -157.61 -40.4715 176.824
lHand  0.254698 0.195082 5.2986
rCollar  1.7976e-016 -5.12864e-014 1.62755e-015
rShldr  -3.22212 4.78979 34.1307
rForeArm  -3.40632 -1.01019 133.293
rHand  0.102778 0.732131 -11.0834
lThigh  -7.24072 -3.50248 0.15972
lShin  -11.9418 1.23914 -4.9937
lFoot  4.68766 -0.416849 -2.55121
rThigh  8.86927 -6.05044 -0.756122
rShin  2.32451 2.912 3.44721
rFoot  -3.33629 -0.0914401 -4.39754
